PathFileType	4	(X/Y/Z)	C:/Users/opensim2020/Desktop/walking_exp_matlab/subject06_walking17_straight_03.trc	
DataRate	CameraRate	NumFrames	NumMarkers	Units	OrigDataRate	OrigDataStartFrame	OrigNumFrames	
100.00	100.00	8	45	mm	100.00	3208	295	
Frame#	Time	LFHD			RFHD			LBHD			RBHD			C7			T10			CLAV			STRN			RBAK			LSHO			LUPA			LELB			LFRM			LWRA			LWRB			LFIN			RSHO			RUPA			RELB			RFRM			RWRA			RWRB			RFIN			LASI			RASI			LPSI			RPSI			LTHI			LKNE			LTIB			LANK			LHEE			LTOE			RTHI			RKNE			RTIB			RANK			RHEE			RTOE			*39			*40			*41			*42			*43			*44			
		X1	Y1	Z1	X2	Y2	Z2	X3	Y3	Z3	X4	Y4	Z4	X5	Y5	Z5	X6	Y6	Z6	X7	Y7	Z7	X8	Y8	Z8	X9	Y9	Z9	X10	Y10	Z10	X11	Y11	Z11	X12	Y12	Z12	X13	Y13	Z13	X14	Y14	Z14	X15	Y15	Z15	X16	Y16	Z16	X17	Y17	Z17	X18	Y18	Z18	X19	Y19	Z19	X20	Y20	Z20	X21	Y21	Z21	X22	Y22	Z22	X23	Y23	Z23	X24	Y24	Z24	X25	Y25	Z25	X26	Y26	Z26	X27	Y27	Z27	X28	Y28	Z28	X29	Y29	Z29	X30	Y30	Z30	X31	Y31	Z31	X32	Y32	Z32	X33	Y33	Z33	X34	Y34	Z34	X35	Y35	Z35	X36	Y36	Z36	X37	Y37	Z37	X38	Y38	Z38	X39	Y39	Z39	X40	Y40	Z40	X41	Y41	Z41	X42	Y42	Z42	X43	Y43	Z43	X44	Y44	Z44	X45	Y45	Z45	

1	0.000	-1052.38684	-764.06848	1668.16333	-923.99854	-777.15192	1651.08435	-1068.96594	-896.52716	1610.75781	-940.19409	-906.37408	1599.05847	-1009.24896	-899.80872	1454.23230	-998.82312	-940.41364	1126.01636	-1009.83801	-792.47644	1373.22156	-1013.48010	-757.21411	1197.36816	-922.72479	-974.55359	1287.84155	-1170.86658	-848.82349	1404.77454	-1239.96777	-873.61536	1203.42566	-1251.16052	-891.27814	1092.10950	-1279.90271	-874.31152	943.93134	-1252.06653	-806.24707	829.29291	-1276.66516	-873.60419	824.12708	-1287.71167	-831.35339	744.23889	-847.94592	-828.21844	1408.65710	-749.96973	-851.33112	1213.10767	-734.04456	-829.46057	1092.60742	-724.97943	-786.73230	980.29779	-780.39221	-710.12500	857.37329	-722.61969	-744.57526	850.50543	-735.50751	-692.99750	785.10297	-1107.63464	-758.29474	966.64520	-887.45941	-766.52081	968.37323	-1087.15405	-917.55585	990.78168	-917.82324	-917.13727	993.66724	-1168.35352	-769.92822	652.39197	-1139.73450	-733.22247	494.09399	-1147.22424	-801.30328	249.94847	-1117.52185	-824.43481	76.95390	-1068.47852	-862.05157	60.30124	-1130.28113	-686.72919	43.47335	-850.34674	-836.66235	633.08044	-875.71735	-845.72534	507.47336	-889.34930	-918.80853	248.93921	-946.67670	-950.00256	67.72845	-991.89148	-991.29083	45.55210	-943.27203	-797.81360	30.95396	-1003.05621	-872.09344	1701.25378															 
2	0.010	-1052.22852	-758.35992	1667.68848	-923.65179	-770.81598	1650.85876	-1068.51660	-890.87836	1610.38965	-939.71600	-900.42761	1598.79370	-1008.71570	-894.08972	1453.86353	-998.13477	-934.81598	1125.64282	-1009.52124	-786.75226	1372.91113	-1013.00739	-751.63062	1196.96899	-921.90973	-968.75439	1287.56262	-1170.90222	-844.05463	1404.56946	-1239.64209	-869.72101	1203.36047	-1250.98572	-888.22412	1092.17749	-1279.34985	-872.59790	943.76947	-1251.45129	-805.87390	828.55164	-1276.77637	-873.88550	824.19525	-1287.13391	-832.65259	743.52783	-847.61334	-822.23499	1408.41064	-749.19678	-844.41095	1212.99377	-733.19580	-821.85754	1092.62439	-724.17059	-778.43274	980.59192	-779.63245	-701.14374	858.15546	-721.86481	-735.53186	851.07666	-734.81226	-683.49524	785.98334	-1106.77649	-752.10345	966.57776	-886.68414	-761.25568	967.77118	-1086.83423	-911.65399	990.61115	-917.47559	-911.69110	993.22913	-1168.42896	-763.56110	652.50989	-1139.96826	-725.57953	494.41806	-1147.08899	-785.23633	247.89870	-1116.73730	-801.54291	74.31392	-1068.09009	-839.55743	57.09729	-1127.47632	-663.38495	43.63791	-850.26379	-832.56866	632.54395	-875.59216	-842.21564	507.01569	-889.55438	-917.28638	248.97017	-946.68677	-949.82086	67.90582	-991.90509	-991.21185	45.89048	-943.27325	-797.70245	30.88766	-1002.75250	-866.16492	1700.92285															 
3	0.020	-1052.22327	-752.63092	1667.23315	-923.52631	-764.91998	1650.39038	-1068.11328	-885.18481	1609.97363	-939.26471	-894.40875	1598.48315	-1008.21533	-888.34521	1453.44775	-997.54688	-929.09369	1125.20020	-1009.18292	-781.13959	1372.46130	-1012.59229	-746.01569	1196.53711	-921.10999	-962.89252	1287.22998	-1170.16553	-838.45630	1404.07727	-1239.93201	-866.10645	1203.27380	-1250.78430	-885.24768	1092.28625	-1279.16223	-871.19952	943.72949	-1250.34509	-805.62219	827.91187	-1276.76514	-873.82318	824.23663	-1286.49158	-833.62701	742.92700	-847.33313	-816.22089	1408.11133	-748.58521	-837.46118	1212.85132	-732.44757	-814.34583	1092.59705	-723.44458	-770.23419	980.81476	-778.90106	-692.28229	858.88239	-721.14429	-726.61530	851.54785	-733.95300	-674.58856	786.86786	-1106.04041	-746.04492	966.45392	-886.07233	-755.71094	967.28430	-1086.54358	-905.72266	990.37927	-917.12109	-906.18970	992.76984	-1168.61536	-757.09314	652.67188	-1140.22083	-718.09509	494.67023	-1146.79956	-769.42908	246.13536	-1115.84424	-779.34155	72.25877	-1067.53174	-817.52570	55.08178	-1124.49011	-640.52576	43.60406	-850.13812	-828.42108	632.02460	-875.43781	-838.61353	506.43985	-889.31830	-915.66022	248.92079	-946.69189	-949.63422	68.13101	-991.95837	-991.09180	46.20771	-943.22913	-797.60266	30.83763	-1002.43683	-860.28870	1700.52173															 
4	0.030	-1052.18481	-746.80090	1666.70825	-923.30078	-758.75305	1650.00830	-1067.74731	-879.44635	1609.53406	-938.83649	-888.42029	1598.07373	-1007.74103	-882.55457	1453.03809	-996.97485	-923.47363	1124.80896	-1009.17377	-775.34796	1372.00745	-1012.20874	-740.38086	1196.00427	-920.39722	-957.05573	1286.89697	-1169.78821	-833.05640	1403.65210	-1239.19287	-861.76398	1203.16760	-1250.47803	-882.32318	1092.40442	-1278.82190	-869.54254	943.65155	-1249.43750	-805.56293	827.04852	-1276.75903	-873.53949	824.23920	-1285.86523	-834.36053	742.32080	-847.01642	-810.22107	1407.81201	-748.04974	-830.57916	1212.61768	-731.72516	-806.95721	1092.52075	-722.67249	-762.19427	981.04077	-778.10944	-683.44843	859.62689	-720.51685	-717.78815	851.99097	-733.36993	-664.99939	787.65369	-1105.29663	-740.18787	966.20093	-885.37573	-750.35736	966.73486	-1086.26990	-899.84155	990.13092	-916.82373	-900.74841	992.35559	-1168.88525	-750.62738	652.83594	-1140.60498	-710.70490	494.90891	-1146.28369	-753.83954	244.75708	-1114.78394	-757.97186	70.85033	-1066.52808	-796.19409	53.88037	-1121.57849	-618.32220	43.04430	-850.00372	-824.26190	631.61743	-875.27448	-834.89917	505.99045	-889.28430	-914.08051	248.92072	-946.74982	-949.38635	68.34259	-991.99817	-990.96143	46.61436	-943.18060	-797.58704	30.82403	-1002.21173	-854.34943	1700.10779															 
5	0.040	-1052.21936	-741.02618	1666.19971	-923.29590	-752.70233	1649.53162	-1067.43396	-873.65479	1609.03455	-938.47644	-882.48199	1597.68555	-1007.37976	-876.75952	1452.62231	-996.41296	-917.68726	1124.34082	-1008.74597	-769.62140	1371.49622	-1011.92670	-734.58594	1195.55774	-919.74597	-951.17145	1286.51965	-1169.47900	-827.56165	1403.15930	-1239.44702	-858.16003	1203.05396	-1250.30518	-879.20966	1092.41748	-1278.47583	-867.79163	943.49176	-1248.92139	-805.29236	826.00061	-1276.64648	-873.07867	824.21027	-1285.20422	-834.80585	741.75403	-846.81726	-804.22510	1407.43030	-747.62805	-823.83472	1212.39514	-731.11322	-799.67114	1092.40393	-722.00305	-754.25928	981.18213	-777.41656	-674.47980	860.49396	-719.86493	-709.17108	852.38837	-732.55164	-655.97455	788.40277	-1104.68591	-734.25140	966.04865	-884.75348	-745.01953	966.19684	-1086.01624	-894.06622	989.83618	-916.53113	-895.13599	991.85901	-1169.18359	-744.30347	652.95062	-1141.18103	-703.07104	495.21002	-1145.77417	-738.49597	243.82857	-1113.59741	-737.53943	70.17777	-1065.28674	-775.95734	53.76326	-1118.07324	-597.14111	42.03659	-850.26794	-820.02142	630.95398	-875.29486	-831.11945	505.42316	-889.39948	-912.30939	248.92899	-946.80164	-949.15723	68.64040	-992.10968	-990.75696	47.06112	-943.17542	-797.46973	30.75239	-1002.01569	-848.44147	1699.63916															 
6	0.050	-1052.14063	-735.09973	1665.63672	-923.34503	-746.69189	1649.09900	-1067.16956	-867.82935	1608.52490	-938.20099	-876.40753	1597.24451	-1007.04889	-870.86554	1452.14868	-995.89294	-911.99353	1123.87939	-1008.55328	-763.77234	1370.95813	-1011.67151	-728.90039	1195.02942	-919.20313	-945.32794	1286.16248	-1169.14722	-821.94934	1402.63611	-1238.78711	-853.86346	1202.79749	-1250.09607	-876.04633	1092.45752	-1278.19202	-866.11292	943.39600	-1247.97217	-804.98090	825.53314	-1276.53589	-872.44427	824.17554	-1284.62805	-835.00104	741.28455	-846.60986	-798.21704	1407.03589	-747.15356	-817.26129	1212.09265	-730.52844	-792.56262	1092.26404	-721.37799	-746.48022	981.33142	-776.69281	-665.86353	861.12451	-719.31982	-700.63232	852.76849	-731.82635	-647.10455	789.13074	-1104.08777	-728.48523	965.81592	-884.36066	-739.36676	965.52045	-1085.73047	-888.30450	989.46362	-916.20251	-889.62976	991.35095	-1169.50085	-737.69385	653.13794	-1141.57642	-695.29822	495.70105	-1145.29736	-723.91864	243.49611	-1112.26611	-718.24963	70.08676	-1064.02612	-756.69135	53.92760	-1115.03918	-577.07208	41.25609	-850.09131	-815.56287	630.42181	-875.17151	-827.21631	504.82016	-889.44556	-910.51373	248.94124	-946.87238	-948.85541	68.98875	-992.20172	-990.60120	47.58360	-943.19189	-797.35272	30.69884	-1001.87256	-842.48224	1699.13916															 
7	0.060	-1052.17261	-729.23364	1665.05786	-923.45874	-740.73517	1648.63416	-1066.97058	-862.02240	1607.96472	-938.00549	-870.31580	1596.76489	-1006.76691	-864.93286	1451.68445	-995.39825	-906.36932	1123.41077	-1008.44763	-757.91364	1370.38647	-1011.46814	-723.16724	1194.46729	-918.73633	-939.40936	1285.74976	-1169.07642	-816.25427	1402.12292	-1238.40637	-849.52673	1202.65515	-1249.74060	-872.91089	1092.47876	-1277.84387	-864.27942	943.23145	-1246.96521	-804.57428	824.54919	-1276.31335	-871.52991	823.98218	-1284.08826	-834.84027	740.98126	-846.41364	-792.15857	1406.58850	-746.80212	-810.65112	1211.73438	-730.00360	-785.53094	1092.01135	-720.79730	-738.80499	981.35443	-776.05750	-657.31299	861.75916	-718.73090	-692.21014	853.13782	-731.20398	-638.12952	789.97455	-1103.70105	-722.59149	965.65710	-883.83148	-733.96887	964.95142	-1085.41248	-882.58160	989.05713	-915.92889	-884.06763	990.83252	-1169.79700	-730.90173	653.37585	-1141.79321	-687.26788	496.29019	-1144.71777	-709.91394	243.38748	-1110.89246	-700.00012	70.39156	-1062.53638	-738.20087	54.21091	-1112.13000	-558.41223	41.08081	-850.08966	-811.05798	629.87622	-875.10431	-823.44110	504.46930	-889.53284	-908.48431	248.95128	-946.93671	-948.48071	69.40122	-992.29956	-990.31744	48.16398	-943.18127	-797.22223	30.70687	-1001.76373	-836.49426	1698.57971															 
8	0.070	-1052.85071	-723.69104	1664.67810	-923.39661	-734.47754	1648.07751	-1066.79883	-856.07593	1607.33398	-937.83704	-864.22559	1596.24670	-1006.55536	-858.97235	1451.17004	-995.00201	-900.74426	1122.92456	-1008.32159	-752.00677	1369.78101	-1011.27216	-717.44952	1193.84485	-918.30066	-933.52808	1285.34412	-1168.83289	-810.61438	1401.49976	-1238.53198	-845.60406	1202.32642	-1249.31702	-869.64227	1092.36511	-1277.49976	-862.42651	943.09900	-1246.65881	-803.47144	824.00641	-1276.16772	-870.70441	824.04254	-1283.64795	-834.81683	740.37439	-846.29010	-786.05066	1406.08643	-746.65332	-804.04877	1211.34009	-729.53979	-778.60901	1091.75916	-720.30511	-731.25977	981.42487	-775.58948	-648.94836	862.35791	-718.37115	-683.84241	853.50464	-730.77142	-629.16772	790.66742	-1103.30225	-716.91895	965.39606	-883.67249	-728.31299	964.28851	-1085.20374	-876.91125	988.63080	-915.73230	-878.51874	990.19604	-1170.12976	-724.02411	653.47058	-1141.94543	-679.24152	496.83817	-1143.92505	-696.68457	243.35141	-1109.60791	-683.04395	70.62010	-1061.07617	-720.44196	54.35205	-1109.96838	-540.46185	41.54655	-850.25824	-806.46484	629.27405	-874.96069	-819.25464	503.96252	-889.55255	-906.60455	249.06798	-946.97687	-948.06464	69.80779	-992.29626	-990.15497	48.99846	-943.17395	-797.06000	30.63241	-1001.66901	-830.49500	1698.13940															 
